<mxfile host="Electron" modified="2023-11-28T15:43:18.768Z" agent="Mozilla/5.0 (Macintosh; Intel Mac OS X 10_15_7) AppleWebKit/537.36 (KHTML, like Gecko) draw.io/22.1.2 Chrome/114.0.5735.289 Electron/25.9.4 Safari/537.36" etag="mOiPHaxL3L57n1fm9-N2" version="22.1.2" type="device">
  <diagram name="Page-1" id="ZRe_wIOORr0k_d4isBBX">
    <mxGraphModel dx="2363" dy="1701" grid="1" gridSize="10" guides="1" tooltips="1" connect="1" arrows="1" fold="1" page="1" pageScale="1" pageWidth="1169" pageHeight="827" math="0" shadow="0">
      <root>
        <mxCell id="0" />
        <mxCell id="1" parent="0" />
        <mxCell id="l4elXfhYGXROxwvpLcCw-24" value="" style="rounded=0;whiteSpace=wrap;html=1;fontSize=16;fillColor=none;" parent="1" vertex="1">
          <mxGeometry x="-1140" y="-720" width="186" height="590" as="geometry" />
        </mxCell>
        <mxCell id="l4elXfhYGXROxwvpLcCw-27" value="&lt;i&gt;&lt;b&gt;JWS (Decoded)&lt;/b&gt;&lt;/i&gt;" style="text;strokeColor=none;fillColor=none;html=1;align=center;verticalAlign=middle;whiteSpace=wrap;rounded=0;fontSize=16;" parent="1" vertex="1">
          <mxGeometry x="-1136.5" y="-710" width="179" height="34" as="geometry" />
        </mxCell>
        <mxCell id="l4elXfhYGXROxwvpLcCw-32" style="edgeStyle=none;curved=1;rounded=0;orthogonalLoop=1;jettySize=auto;html=1;exitX=1;exitY=0.5;exitDx=0;exitDy=0;fontSize=12;startSize=8;endSize=8;entryX=0;entryY=0.5;entryDx=0;entryDy=0;dashed=1;" parent="1" source="l4elXfhYGXROxwvpLcCw-28" target="ER31MuB_UY-cCxpY8kVJ-3" edge="1">
          <mxGeometry relative="1" as="geometry">
            <mxPoint x="-887" y="-685" as="targetPoint" />
          </mxGeometry>
        </mxCell>
        <mxCell id="l4elXfhYGXROxwvpLcCw-28" value="Header" style="text;strokeColor=none;fillColor=none;html=1;align=left;verticalAlign=middle;whiteSpace=wrap;rounded=0;fontSize=16;fontStyle=2" parent="1" vertex="1">
          <mxGeometry x="-1110" y="-640" width="60" height="30" as="geometry" />
        </mxCell>
        <mxCell id="l4elXfhYGXROxwvpLcCw-29" value="Payload&amp;nbsp;&amp;nbsp;" style="text;strokeColor=none;fillColor=none;html=1;align=left;verticalAlign=middle;whiteSpace=wrap;rounded=0;fontSize=16;fontStyle=2" parent="1" vertex="1">
          <mxGeometry x="-1110" y="-422" width="70" height="30" as="geometry" />
        </mxCell>
        <mxCell id="l4elXfhYGXROxwvpLcCw-30" value="Signature" style="text;strokeColor=none;fillColor=none;html=1;align=left;verticalAlign=middle;whiteSpace=wrap;rounded=0;fontSize=16;fontStyle=2" parent="1" vertex="1">
          <mxGeometry x="-1110" y="-210" width="80" height="30" as="geometry" />
        </mxCell>
        <mxCell id="l4elXfhYGXROxwvpLcCw-33" style="edgeStyle=none;curved=1;rounded=0;orthogonalLoop=1;jettySize=auto;html=1;fontSize=12;startSize=8;endSize=8;entryX=0;entryY=0.5;entryDx=0;entryDy=0;dashed=1;exitX=1;exitY=0.5;exitDx=0;exitDy=0;" parent="1" source="l4elXfhYGXROxwvpLcCw-29" target="2GJPVY69K1nzuMpb44CU-1" edge="1">
          <mxGeometry relative="1" as="geometry">
            <mxPoint x="-1037" y="-390" as="sourcePoint" />
            <mxPoint x="-877" y="-420.5" as="targetPoint" />
          </mxGeometry>
        </mxCell>
        <mxCell id="l4elXfhYGXROxwvpLcCw-34" style="edgeStyle=none;curved=1;rounded=0;orthogonalLoop=1;jettySize=auto;html=1;fontSize=12;startSize=8;endSize=8;entryX=0;entryY=0.5;entryDx=0;entryDy=0;dashed=1;exitX=1;exitY=0.5;exitDx=0;exitDy=0;" parent="1" source="l4elXfhYGXROxwvpLcCw-30" target="l4elXfhYGXROxwvpLcCw-14" edge="1">
          <mxGeometry relative="1" as="geometry">
            <mxPoint x="-1020" y="-195" as="sourcePoint" />
            <mxPoint x="-877" y="-392" as="targetPoint" />
          </mxGeometry>
        </mxCell>
        <mxCell id="ER31MuB_UY-cCxpY8kVJ-2" value="" style="group" parent="1" vertex="1" connectable="0">
          <mxGeometry x="-890" y="-563" width="870" height="306" as="geometry" />
        </mxCell>
        <mxCell id="2GJPVY69K1nzuMpb44CU-1" value="" style="rounded=1;whiteSpace=wrap;html=1;fontSize=16;fillColor=none;dashed=1;dashPattern=1 2;" parent="ER31MuB_UY-cCxpY8kVJ-2" vertex="1">
          <mxGeometry y="6" width="870" height="300" as="geometry" />
        </mxCell>
        <mxCell id="I-3xDNqU13IutiKupr62-59" value="&lt;i style=&quot;border-color: var(--border-color); color: rgb(0, 0, 0); font-family: Helvetica; font-size: 16px; font-variant-ligatures: normal; font-variant-caps: normal; font-weight: 400; letter-spacing: normal; orphans: 2; text-indent: 0px; text-transform: none; widows: 2; word-spacing: 0px; -webkit-text-stroke-width: 0px; background-color: rgb(251, 251, 251); text-decoration-thickness: initial; text-decoration-style: initial; text-decoration-color: initial;&quot;&gt;&lt;font style=&quot;border-color: var(--border-color); font-size: 13px;&quot;&gt;verifiable credential graph&lt;br&gt;(serialized in JSON)&lt;br&gt;&lt;/font&gt;&lt;/i&gt;" style="text;whiteSpace=wrap;html=1;fontSize=16;align=center;rotation=0;" parent="ER31MuB_UY-cCxpY8kVJ-2" vertex="1">
          <mxGeometry x="654" width="170" height="30" as="geometry" />
        </mxCell>
        <UserObject label="&lt;i&gt;&lt;font color=&quot;#000000&quot;&gt;Example University&lt;/font&gt;&lt;/i&gt;" id="I-3xDNqU13IutiKupr62-2">
          <mxCell style="ellipse;whiteSpace=wrap;html=1;fontSize=16;fillColor=none;strokeWidth=2;strokeColor=#336600;" parent="ER31MuB_UY-cCxpY8kVJ-2" vertex="1">
            <mxGeometry x="540" y="257" width="160" height="39.22" as="geometry" />
          </mxCell>
        </UserObject>
        <UserObject label="&lt;i&gt;&lt;font color=&quot;#000000&quot;&gt;2010-01-01T10:37.24Z&lt;/font&gt;&lt;/i&gt;" id="I-3xDNqU13IutiKupr62-8">
          <mxCell style="rounded=0;whiteSpace=wrap;html=1;fontSize=16;fillColor=none;strokeWidth=2;" parent="ER31MuB_UY-cCxpY8kVJ-2" vertex="1">
            <mxGeometry x="29" y="147" width="190" height="40" as="geometry" />
          </mxCell>
        </UserObject>
        <UserObject label="&lt;i&gt;&lt;font color=&quot;#000000&quot;&gt;Example Alumni Credential&lt;/font&gt;&lt;/i&gt;" id="I-3xDNqU13IutiKupr62-9">
          <mxCell style="ellipse;whiteSpace=wrap;html=1;fontSize=16;fillColor=none;strokeWidth=2;strokeColor=#336600;" parent="ER31MuB_UY-cCxpY8kVJ-2" vertex="1">
            <mxGeometry x="359.5" y="16" width="180" height="50" as="geometry" />
          </mxCell>
        </UserObject>
        <UserObject label="&lt;i&gt;&lt;font color=&quot;#000000&quot;&gt;Credential123&lt;/font&gt;&lt;/i&gt;" id="I-3xDNqU13IutiKupr62-1">
          <mxCell style="ellipse;whiteSpace=wrap;html=1;fontSize=16;fillColor=none;strokeWidth=2;strokeColor=#336600;" parent="ER31MuB_UY-cCxpY8kVJ-2" vertex="1">
            <mxGeometry x="376" y="147.39" width="147" height="39.22" as="geometry" />
          </mxCell>
        </UserObject>
        <UserObject label="&lt;i&gt;&lt;font color=&quot;#000000&quot;&gt;Pat&lt;/font&gt;&lt;/i&gt;" id="I-3xDNqU13IutiKupr62-3">
          <mxCell style="ellipse;whiteSpace=wrap;html=1;fontSize=16;fillColor=none;strokeWidth=2;strokeColor=#336600;" parent="ER31MuB_UY-cCxpY8kVJ-2" vertex="1">
            <mxGeometry x="707" y="147.39" width="147" height="39.22" as="geometry" />
          </mxCell>
        </UserObject>
        <mxCell id="I-3xDNqU13IutiKupr62-10" style="edgeStyle=none;curved=1;rounded=0;orthogonalLoop=1;jettySize=auto;html=1;exitX=0;exitY=0.5;exitDx=0;exitDy=0;fontSize=12;startSize=8;endSize=8;" parent="ER31MuB_UY-cCxpY8kVJ-2" source="I-3xDNqU13IutiKupr62-8" target="I-3xDNqU13IutiKupr62-8" edge="1">
          <mxGeometry relative="1" as="geometry" />
        </mxCell>
        <mxCell id="I-3xDNqU13IutiKupr62-11" style="edgeStyle=none;curved=1;rounded=0;orthogonalLoop=1;jettySize=auto;html=1;exitX=1;exitY=0.5;exitDx=0;exitDy=0;fontSize=12;startSize=8;endSize=8;" parent="ER31MuB_UY-cCxpY8kVJ-2" source="I-3xDNqU13IutiKupr62-8" target="I-3xDNqU13IutiKupr62-8" edge="1">
          <mxGeometry relative="1" as="geometry" />
        </mxCell>
        <mxCell id="I-3xDNqU13IutiKupr62-36" value="" style="endArrow=classic;html=1;rounded=0;fontSize=12;startSize=8;endSize=8;curved=1;exitX=0.5;exitY=0;exitDx=0;exitDy=0;entryX=0.5;entryY=1;entryDx=0;entryDy=0;strokeWidth=2;" parent="ER31MuB_UY-cCxpY8kVJ-2" source="I-3xDNqU13IutiKupr62-1" target="I-3xDNqU13IutiKupr62-9" edge="1">
          <mxGeometry width="50" height="50" relative="1" as="geometry">
            <mxPoint x="-624" y="-333" as="sourcePoint" />
            <mxPoint x="-574" y="-383" as="targetPoint" />
          </mxGeometry>
        </mxCell>
        <mxCell id="I-3xDNqU13IutiKupr62-37" value="type" style="edgeLabel;html=1;align=center;verticalAlign=middle;resizable=0;points=[];fontSize=16;" parent="I-3xDNqU13IutiKupr62-36" vertex="1" connectable="0">
          <mxGeometry x="-0.016" relative="1" as="geometry">
            <mxPoint as="offset" />
          </mxGeometry>
        </mxCell>
        <mxCell id="I-3xDNqU13IutiKupr62-38" value="" style="endArrow=classic;html=1;rounded=0;fontSize=12;startSize=8;endSize=8;curved=1;exitX=0;exitY=0.5;exitDx=0;exitDy=0;entryX=1;entryY=0.5;entryDx=0;entryDy=0;strokeWidth=2;" parent="ER31MuB_UY-cCxpY8kVJ-2" source="I-3xDNqU13IutiKupr62-1" target="I-3xDNqU13IutiKupr62-8" edge="1">
          <mxGeometry width="50" height="50" relative="1" as="geometry">
            <mxPoint x="-754" y="-592.6100000000001" as="sourcePoint" />
            <mxPoint x="-754" y="-692.6100000000001" as="targetPoint" />
          </mxGeometry>
        </mxCell>
        <mxCell id="I-3xDNqU13IutiKupr62-39" value="type" style="edgeLabel;html=1;align=center;verticalAlign=middle;resizable=0;points=[];fontSize=16;" parent="I-3xDNqU13IutiKupr62-38" vertex="1" connectable="0">
          <mxGeometry x="-0.016" relative="1" as="geometry">
            <mxPoint as="offset" />
          </mxGeometry>
        </mxCell>
        <mxCell id="I-3xDNqU13IutiKupr62-40" value="validFrom&amp;nbsp;" style="edgeLabel;html=1;align=center;verticalAlign=middle;resizable=0;points=[];fontSize=16;" parent="I-3xDNqU13IutiKupr62-38" vertex="1" connectable="0">
          <mxGeometry x="-0.0409" y="-1" relative="1" as="geometry">
            <mxPoint as="offset" />
          </mxGeometry>
        </mxCell>
        <mxCell id="I-3xDNqU13IutiKupr62-46" value="" style="endArrow=classic;html=1;rounded=0;fontSize=12;startSize=8;endSize=8;curved=1;entryX=0.5;entryY=0;entryDx=0;entryDy=0;strokeWidth=2;exitX=1;exitY=1;exitDx=0;exitDy=0;" parent="ER31MuB_UY-cCxpY8kVJ-2" source="I-3xDNqU13IutiKupr62-1" target="I-3xDNqU13IutiKupr62-2" edge="1">
          <mxGeometry width="50" height="50" relative="1" as="geometry">
            <mxPoint x="-611" y="-501.3899999999999" as="sourcePoint" />
            <mxPoint x="-724" y="-425.3899999999999" as="targetPoint" />
          </mxGeometry>
        </mxCell>
        <mxCell id="I-3xDNqU13IutiKupr62-47" value="issuer" style="edgeLabel;html=1;align=center;verticalAlign=middle;resizable=0;points=[];fontSize=16;" parent="I-3xDNqU13IutiKupr62-46" vertex="1" connectable="0">
          <mxGeometry x="-0.016" relative="1" as="geometry">
            <mxPoint as="offset" />
          </mxGeometry>
        </mxCell>
        <mxCell id="I-3xDNqU13IutiKupr62-41" value="" style="endArrow=classic;html=1;rounded=0;fontSize=12;startSize=8;endSize=8;curved=1;entryX=0;entryY=0.5;entryDx=0;entryDy=0;strokeWidth=2;exitX=1;exitY=0.5;exitDx=0;exitDy=0;" parent="ER31MuB_UY-cCxpY8kVJ-2" source="I-3xDNqU13IutiKupr62-1" target="I-3xDNqU13IutiKupr62-3" edge="1">
          <mxGeometry width="50" height="50" relative="1" as="geometry">
            <mxPoint x="-554" y="-513" as="sourcePoint" />
            <mxPoint x="-854" y="-563" as="targetPoint" />
          </mxGeometry>
        </mxCell>
        <mxCell id="I-3xDNqU13IutiKupr62-42" value="&amp;nbsp;credentialSubject&amp;nbsp;" style="edgeLabel;html=1;align=center;verticalAlign=middle;resizable=0;points=[];fontSize=16;" parent="I-3xDNqU13IutiKupr62-41" vertex="1" connectable="0">
          <mxGeometry x="-0.016" relative="1" as="geometry">
            <mxPoint as="offset" />
          </mxGeometry>
        </mxCell>
        <mxCell id="I-3xDNqU13IutiKupr62-44" value="" style="endArrow=classic;html=1;rounded=0;fontSize=12;startSize=8;endSize=8;curved=1;entryX=0.5;entryY=0;entryDx=0;entryDy=0;strokeWidth=2;exitX=0;exitY=1;exitDx=0;exitDy=0;" parent="ER31MuB_UY-cCxpY8kVJ-2" source="I-3xDNqU13IutiKupr62-3" target="I-3xDNqU13IutiKupr62-2" edge="1">
          <mxGeometry width="50" height="50" relative="1" as="geometry">
            <mxPoint x="-314" y="-403" as="sourcePoint" />
            <mxPoint x="-122" y="-403" as="targetPoint" />
          </mxGeometry>
        </mxCell>
        <mxCell id="I-3xDNqU13IutiKupr62-45" value="alumniOf" style="edgeLabel;html=1;align=center;verticalAlign=middle;resizable=0;points=[];fontSize=16;" parent="I-3xDNqU13IutiKupr62-44" vertex="1" connectable="0">
          <mxGeometry x="-0.016" relative="1" as="geometry">
            <mxPoint as="offset" />
          </mxGeometry>
        </mxCell>
        <mxCell id="ER31MuB_UY-cCxpY8kVJ-5" value="" style="group" parent="1" vertex="1" connectable="0">
          <mxGeometry x="-890" y="-220" width="870" height="50" as="geometry" />
        </mxCell>
        <mxCell id="l4elXfhYGXROxwvpLcCw-14" value="" style="rounded=1;whiteSpace=wrap;html=1;fontSize=16;fillColor=none;dashed=1;dashPattern=1 2;" parent="ER31MuB_UY-cCxpY8kVJ-5" vertex="1">
          <mxGeometry width="870" height="50" as="geometry" />
        </mxCell>
        <mxCell id="JoZCwbDOvjXTbyjPgoR8-8" value="DtEhU3ljbEg8L38VWAfUA..." style="text;strokeColor=none;fillColor=none;html=1;align=left;verticalAlign=middle;whiteSpace=wrap;rounded=0;fontSize=16;" parent="ER31MuB_UY-cCxpY8kVJ-5" vertex="1">
          <mxGeometry x="20" y="10" width="410" height="30" as="geometry" />
        </mxCell>
        <mxCell id="vhQtHSKfC6ez-OFtHlHv-1" value="" style="group" vertex="1" connectable="0" parent="1">
          <mxGeometry x="-890" y="-650" width="870" height="50" as="geometry" />
        </mxCell>
        <mxCell id="ER31MuB_UY-cCxpY8kVJ-3" value="" style="rounded=1;whiteSpace=wrap;html=1;fontSize=16;fillColor=none;dashed=1;dashPattern=1 2;" parent="vhQtHSKfC6ez-OFtHlHv-1" vertex="1">
          <mxGeometry width="870" height="50" as="geometry" />
        </mxCell>
        <mxCell id="l4elXfhYGXROxwvpLcCw-8" value="&lt;i&gt;kid: https://example.com/keys/#1234&lt;/i&gt;" style="text;strokeColor=none;fillColor=none;html=1;align=left;verticalAlign=middle;whiteSpace=wrap;rounded=0;fontSize=16;" parent="vhQtHSKfC6ez-OFtHlHv-1" vertex="1">
          <mxGeometry x="28" y="10" width="263" height="30" as="geometry" />
        </mxCell>
        <mxCell id="l4elXfhYGXROxwvpLcCw-9" value="&lt;i&gt;alg: E384&lt;/i&gt;" style="text;strokeColor=none;fillColor=none;html=1;align=left;verticalAlign=middle;whiteSpace=wrap;rounded=0;fontSize=16;" parent="vhQtHSKfC6ez-OFtHlHv-1" vertex="1">
          <mxGeometry x="384" y="10" width="160" height="30" as="geometry" />
        </mxCell>
        <mxCell id="l4elXfhYGXROxwvpLcCw-11" value="&lt;i&gt;cty: vc+ld+json&lt;/i&gt;" style="text;strokeColor=none;fillColor=none;html=1;align=left;verticalAlign=middle;whiteSpace=wrap;rounded=0;fontSize=16;" parent="vhQtHSKfC6ez-OFtHlHv-1" vertex="1">
          <mxGeometry x="688" y="10" width="160" height="30" as="geometry" />
        </mxCell>
      </root>
    </mxGraphModel>
  </diagram>
</mxfile>
